<?xml version="1.0" encoding="UTF-8" standalone="no"?>
<!-- Created with Inkscape (http://www.inkscape.org/) -->

<svg
   xmlns:dc="http://purl.org/dc/elements/1.1/"
   xmlns:cc="http://creativecommons.org/ns#"
   xmlns:rdf="http://www.w3.org/1999/02/22-rdf-syntax-ns#"
   xmlns:svg="http://www.w3.org/2000/svg"
   xmlns="http://www.w3.org/2000/svg"
   xmlns:xlink="http://www.w3.org/1999/xlink"
   xmlns:sodipodi="http://sodipodi.sourceforge.net/DTD/sodipodi-0.dtd"
   xmlns:inkscape="http://www.inkscape.org/namespaces/inkscape"
   width="1024"
   height="1024"
   id="svg2"
   version="1.1"
   inkscape:version="0.48.0 r9654"
   sodipodi:docname="New document 1">
  <defs
     id="defs4">
    <linearGradient
       id="linearGradient3761">
      <stop
         style="stop-color:#ff0000;stop-opacity:1;"
         offset="0"
         id="stop3763" />
      <stop
         style="stop-color:#ff0000;stop-opacity:0.25098041;"
         offset="1"
         id="stop3765" />
    </linearGradient>
    <linearGradient
       inkscape:collect="always"
       xlink:href="#linearGradient3761"
       id="linearGradient3767"
       x1="40.884175"
       y1="515.55446"
       x2="1003.4211"
       y2="515.55446"
       gradientUnits="userSpaceOnUse" />
  </defs>
  <sodipodi:namedview
     id="base"
     pagecolor="#ffffff"
     bordercolor="#666666"
     borderopacity="1.0"
     inkscape:pageopacity="0.0"
     inkscape:pageshadow="2"
     inkscape:zoom="0.35"
     inkscape:cx="-70.714286"
     inkscape:cy="520"
     inkscape:document-units="px"
     inkscape:current-layer="layer1"
     showgrid="false"
     inkscape:window-width="1600"
     inkscape:window-height="838"
     inkscape:window-x="-8"
     inkscape:window-y="-8"
     inkscape:window-maximized="1" />
  <metadata
     id="metadata7">
    <rdf:RDF>
      <cc:Work
         rdf:about="">
        <dc:format>image/svg+xml</dc:format>
        <dc:type
           rdf:resource="http://purl.org/dc/dcmitype/StillImage" />
        <dc:title></dc:title>
      </cc:Work>
    </rdf:RDF>
  </metadata>
  <g
     inkscape:label="Layer 1"
     inkscape:groupmode="layer"
     id="layer1">
    <path
       style="fill:url(#linearGradient3767);fill-opacity:1;stroke:none;stroke-width:5;stroke-linecap:butt;stroke-linejoin:miter;stroke-miterlimit:4;stroke-opacity:1;stroke-dasharray:none"
       id="path2991"
       d="m 80.03346,559.39355 c 10.369661,17.93062 18.927862,36.80654 27.78894,55.505 12.72603,25.25507 23.31143,51.56337 36.47579,76.60275 2.83985,5.40155 5.95394,10.65441 8.93091,15.98162 15.32219,29.43115 32.22704,57.9612 49.34537,86.36917 16.19314,27.30872 31.05973,55.38294 46.08364,83.34581 11.91053,20.44252 21.20019,42.18792 29.57956,64.2638 2.32273,7.01158 4.97452,13.90974 7.27738,20.92802 1.23377,3.76009 1.91138,7.49031 4.38145,10.62885 10.37677,-13.89405 -17.97399,9.30709 -31.80102,15.58847 -1.78746,0.81201 2.38849,-3.11782 3.51968,-4.72244 4.7725,-6.76985 5.03694,-7.56275 9.60567,-15.17993 3.98444,-6.71768 9.51856,-16.14156 13.60245,-22.6054 3.2669,-5.17074 6.7681,-10.19191 9.99658,-15.38673 15.28471,-24.59403 29.08132,-50.12544 43.2621,-75.3585 27.25476,-46.67208 53.35738,-94.05389 81.62031,-140.13334 3.15474,-5.14344 42.1892,-66.79387 45.35954,-71.80426 45.94166,-71.6641 96.29104,-140.45562 149.25938,-207.06099 7.96706,-9.85199 15.95922,-19.68372 23.90119,-29.55595 15.39111,-19.13186 27.05507,-34.17254 42.8225,-52.82808 17.50462,-20.71091 35.76163,-40.75585 54.30114,-60.53533 24.5878,-26.66203 50.8215,-51.76392 77.51273,-76.29919 15.18759,-14.62246 30.68002,-28.91856 46.20924,-43.1752 8.49365,-7.76754 16.86839,-15.66432 25.30866,-23.4917 12.26206,-11.05381 21.39867,-25.02847 31.14078,-38.24641 11.04986,-15.930152 22.58274,-31.463181 35.13345,-46.243485 4.12874,-4.731759 7.80284,-9.831781 11.49321,-14.905168 0,0 38.77701,-16.840276 38.77701,-16.840276 l 0,0 c -3.69629,5.374649 -7.76006,10.516944 -11.91733,15.540596 -12.93021,14.587631 -24.88947,29.919517 -35.74148,46.125375 -2.06049,2.84833 -4.12097,5.696658 -6.18146,8.544988 -2.04747,2.68548 -4.15718,5.32464 -6.14242,8.05644 -5.56222,7.65393 -10.23583,15.974 -17.71864,22.0238 -8.46741,8.03502 -17.16013,15.83013 -25.72973,23.75016 -16.02531,14.23195 -31.66628,28.90111 -47.27776,43.58577 -27.17785,24.67647 -53.9084,49.91482 -79.08975,76.64193 -18.99439,19.83724 -37.69308,39.99844 -55.62003,60.81526 -15.97006,18.54448 -28.10758,34.07373 -43.63216,53.1385 -8.08189,9.92487 -16.22262,19.80168 -24.33394,29.70251 -53.19849,66.42596 -103.77459,135.09071 -149.65399,206.80216 -15.11661,23.91231 -30.56206,47.61923 -45.3857,71.71426 -28.11687,45.70247 -53.69787,92.92204 -80.39142,139.45353 -13.50216,24.84303 -26.35636,50.18553 -40.77062,74.52227 -3.01418,5.08908 -6.34852,9.98222 -9.4416,15.02374 -4.91192,8.00614 -8.40419,14.20749 -13.02299,22.24935 -6.67067,12.23432 -2.4249,4.90063 -8.86277,15.19657 -1.03624,1.65724 -1.47183,3.86907 -3.0682,4.99682 -12.46438,8.80538 -25.47549,16.84211 -38.6788,24.49507 -1.79101,1.03811 -3.92607,-1.30664 -4.93248,-2.13127 -2.34154,-3.84795 -3.21353,-7.62281 -4.47305,-11.93906 -2.06324,-7.07056 -4.55437,-14.0057 -6.68991,-21.0538 -8.02152,-22.04151 -16.93618,-43.78996 -28.54879,-64.2235 C 198.87651,869.23651 183.9465,841.26344 167.74381,814.04928 150.58793,785.59703 133.94651,756.86966 118.6973,727.33897 102.09906,697.13302 87.81222,665.79741 72.392321,634.98721 63.468999,616.44947 54.904605,597.58716 43.384175,580.47248 c 0,0 36.649285,-21.07893 36.649285,-21.07893 z"
       inkscape:connector-curvature="0" />
  </g>
</svg>
